<?xml version="1.0" encoding="UTF-8" standalone="no"?>
<!-- Created with Inkscape (http://www.inkscape.org/) -->

<svg
   xmlns:dc="http://purl.org/dc/elements/1.1/"
   xmlns:cc="http://creativecommons.org/ns#"
   xmlns:rdf="http://www.w3.org/1999/02/22-rdf-syntax-ns#"
   xmlns:svg="http://www.w3.org/2000/svg"
   xmlns="http://www.w3.org/2000/svg"
   xmlns:sodipodi="http://sodipodi.sourceforge.net/DTD/sodipodi-0.dtd"
   xmlns:inkscape="http://www.inkscape.org/namespaces/inkscape"
   width="21.237595mm"
   height="10.348206mm"
   viewBox="0 0 21.237595 10.348206"
   version="1.1"
   id="svg8"
   inkscape:version="0.92.2 2405546, 2018-03-11"
   sodipodi:docname="logo.svg">
  <defs
     id="defs2" />
  <sodipodi:namedview
     id="base"
     pagecolor="#ffffff"
     bordercolor="#666666"
     borderopacity="1.0"
     inkscape:pageopacity="0.0"
     inkscape:pageshadow="2"
     inkscape:zoom="0.98994949"
     inkscape:cx="238.0652"
     inkscape:cy="-13.725272"
     inkscape:document-units="mm"
     inkscape:current-layer="layer1"
     showgrid="false"
     inkscape:object-nodes="false"
     fit-margin-top="0"
     fit-margin-left="0"
     fit-margin-right="0"
     fit-margin-bottom="0"
     inkscape:window-width="1918"
     inkscape:window-height="1059"
     inkscape:window-x="0"
     inkscape:window-y="0"
     inkscape:window-maximized="0" />
  <metadata
     id="metadata5">
    <rdf:RDF>
      <cc:Work
         rdf:about="">
        <dc:format>image/svg+xml</dc:format>
        <dc:type
           rdf:resource="http://purl.org/dc/dcmitype/StillImage" />
        <dc:title></dc:title>
      </cc:Work>
    </rdf:RDF>
  </metadata>
  <g
     inkscape:label="Layer 1"
     inkscape:groupmode="layer"
     id="layer1"
     transform="translate(-96.0532,-107.67719)">
    <g
       aria-label="Fides"
       style="font-style:normal;font-weight:normal;font-size:10.58333302px;line-height:1.25;font-family:sans-serif;letter-spacing:0px;word-spacing:0px;fill:#ffcc00;fill-opacity:1;stroke:none;stroke-width:0.26458332"
       id="text817">
      <path
         d="m 98.825277,107.75099 q 1.162719,0.41858 2.547643,0.84233 -0.26871,0.34623 -0.5426,0.69246 -0.26872,0.34107 -0.5426,0.68213 -0.16536,-0.25321 -0.992188,-0.59428 -0.826823,-0.34106 -1.049031,-0.093 -0.07751,0.0982 0.03101,0.51159 0.108521,0.40825 0.356568,1.00253 1.07487,0.0568 2.526981,-0.11886 -0.0568,0.31006 -0.10852,0.62012 -0.0517,0.30489 -0.0982,0.60978 l -1.865529,-0.0982 q 0.33073,0.7028 0.744141,1.44694 0.418588,0.74415 0.862998,1.38493 -0.53743,0.73898 -1.069704,1.47795 -0.532267,0.74414 -1.059367,1.48311 -1.260904,-0.62011 -2.237589,-2.07739 0.155029,-0.38757 0.310059,-0.78548 0.160197,-0.39791 0.315226,-0.79065 0.527099,0.80615 1.333252,1.60197 0.806152,0.79582 0.956014,0.53743 0.129191,-0.24288 -0.139527,-0.93017 -0.263549,-0.6873 -0.72347,-1.5813 -0.45992,-0.894 -1.012858,-1.86552 -0.54777,-0.97152 -0.981852,-1.76733 1.565796,-0.98702 2.439128,-2.19109 z"
         style="font-style:normal;font-variant:normal;font-weight:normal;font-stretch:normal;font-family:UnifrakturCook;-inkscape-font-specification:UnifrakturCook;letter-spacing:-0.13229167px;fill:#ffcc00;stroke-width:0.26458332"
         id="path1645"
         inkscape:connector-curvature="0" />
      <path
         d="m 101.50418,111.08412 0.78032,-0.98185 1.15755,0.5426 q -0.062,0.21188 -0.13436,0.41342 -0.0724,0.20153 -0.0724,0.41341 l -0.0723,2.09806 q -0.0155,0.27389 0.14469,0.44442 0.16536,0.16536 0.3669,0.24804 l -1.03353,1.26091 -1.09554,-0.88367 q 0.29973,-0.35656 0.29973,-0.71313 l 0.0362,-2.34611 q 0,-0.24805 -0.37724,-0.4961 z m 0.15503,-1.02836 0.41341,-2.04122 1.53479,0.61495 z"
         style="font-style:normal;font-variant:normal;font-weight:normal;font-stretch:normal;font-family:UnifrakturCook;-inkscape-font-specification:UnifrakturCook;letter-spacing:-0.13229167px;fill:#ffcc00;stroke-width:0.26458332"
         id="path1647"
         inkscape:connector-curvature="0" />
      <path
         d="m 105.50601,110.38649 q -0.39791,-0.67696 -1.04904,-1.42627 l 1.36943,-0.7183 q 1.86035,2.2686 2.06706,5.35368 -0.64596,0.48576 -1.09554,0.89917 -0.44442,0.41341 -0.73381,1.02836 -0.56844,-0.25321 -1.13688,-0.5116 -0.56327,-0.26355 -1.0387,-0.69763 -0.0207,-0.78031 -0.031,-1.56579 -0.0103,-0.78549 -0.0207,-1.57097 0.42891,-0.19637 0.84749,-0.38757 0.42375,-0.19637 0.82166,-0.40308 z m 1.05936,3.81889 q 0.0258,-1.79834 -0.81649,-3.41064 -0.56327,0.26871 -0.67179,0.97668 -0.10335,0.7028 0.0672,1.78801 0.72347,0.5736 1.4211,0.64595 z"
         style="font-style:normal;font-variant:normal;font-weight:normal;font-stretch:normal;font-family:UnifrakturCook;-inkscape-font-specification:UnifrakturCook;letter-spacing:-0.13229167px;fill:#ffcc00;stroke-width:0.26458332"
         id="path1649"
         inkscape:connector-curvature="0" />
      <path
         d="m 109.8644,110.10227 0.0103,0.005 h 0.005 l 2.01021,1.44177 -2.09289,2.20142 q 0.21187,0.25321 0.5271,0.27905 0.33073,0.0413 0.66145,0.0155 0.3359,-0.0258 0.6718,-0.0362 -0.27389,0.38241 -0.5426,0.75964 -0.26872,0.37724 -0.53744,0.75448 -0.62012,-0.24805 -1.24023,-0.49093 -0.61495,-0.24804 -1.23507,-0.49609 0.28422,-1.60197 -0.0207,-3.3693 l 1.78284,-1.04903 z m -0.27389,3.21944 0.83199,-0.8785 q 0.15503,-0.17053 0.031,-0.3669 -0.12403,-0.20154 -0.21704,-0.29455 -0.66146,-0.57878 -0.76998,0.0207 -0.13436,0.7183 0.10852,1.44177 0,0.0155 0,0.0362 0.005,0.0207 0.0155,0.0413 z"
         style="font-style:normal;font-variant:normal;font-weight:normal;font-stretch:normal;font-family:UnifrakturCook;-inkscape-font-specification:UnifrakturCook;letter-spacing:-0.13229167px;fill:#ffcc00;stroke-width:0.26458332"
         id="path1651"
         inkscape:connector-curvature="0" />
      <path
         d="m 112.00587,114.56195 0.89917,-0.94051 q -0.48576,-0.65113 -0.6873,-1.47278 0.62012,-1.02319 1.83451,-2.04639 0.95602,0.26355 2.19108,0.4961 l 0.12403,-0.031 -0.0465,0.0465 -0.92501,0.95085 0.84749,2.1239 q -0.96118,0.7183 -1.76733,1.83451 -1.00769,-0.59428 -2.47013,-0.96118 z m 2.51147,-2.0929 -1.24023,1.27641 q 0.67179,0.38757 1.22473,0.44959 0.5581,0.0568 0.69763,-0.13953 0.1602,-0.24288 -0.0827,-0.66663 -0.24288,-0.42374 -0.59945,-0.91984 z m -0.59428,0.093 1.00252,-1.03353 q -1.42626,-0.38757 -1.55546,-0.1602 -0.12402,0.23255 0.55294,1.19373 z"
         style="font-style:normal;font-variant:normal;font-weight:normal;font-stretch:normal;font-family:UnifrakturCook;-inkscape-font-specification:UnifrakturCook;letter-spacing:-0.13229167px;fill:#ffcc00;stroke-width:0.26458332"
         id="path1653"
         inkscape:connector-curvature="0" />
    </g>
    <path
       style="fill:#ffcc00;stroke:none;stroke-width:0.26458332px;stroke-linecap:butt;stroke-linejoin:miter;stroke-opacity:1"
       d="m 99.431961,117.49532 1.520099,-1.68714 15.81902,0.11694 c -7.94466,0.60429 -14.7162,0.9128 -17.339119,1.5702 z"
       id="path819"
       inkscape:connector-curvature="0"
       sodipodi:nodetypes="cccc" />
  </g>
</svg>
